# xmcd
#
# Track frame offsets: 
#        150
#        28014
#        35878
#        53983
#        71510
#        89079
#        104665
#        119830
#        144707
#        168373
#        206628
#        234741
#
# Disc length: 3157 seconds
#
# Revision: 0
# Processed by: cddbd v1.5.2PL0 Copyright (c) Steve Scherf et al.
# Submitted via: ExactAudioCopyFreeDBPlugin 1.0
#
DISCID=c00c530c
DTITLE=NDR Bigband - Erwin mit der Tröte
DYEAR=2011
DGENRE=Jazz
TTITLE0=Erwin mit der Tröte
TTITLE1=Sansibamba
TTITLE2=Rosa
TTITLE3=Erwin muss üben
TTITLE4=Professor Higgins
TTITLE5=Solo spielen
TTITLE6=Sansibamba Reprise
TTITLE7=La Scala
TTITLE8=Rosa Reprise
TTITLE9=Hagenbecks
TTITLE10=Finale
TTITLE11=Finale 2
EXTD=
EXTT0=
EXTT1=
EXTT2=
EXTT3=
EXTT4=
EXTT5=
EXTT6=
EXTT7=
EXTT8=
EXTT9=
EXTT10=
EXTT11=
PLAYORDER=
